inDegrees=no
num_controls=7
num_derivatives=13
num_iterations=106
num_multipliers=7
num_parameters=0
num_slacks=7
num_states=26
objective=0.497123
objective_accelerations=0.032224
objective_balance=0.003246
objective_effort=0.034984
objective_height=0.421190
objective_ligament=0.005478
solver_duration=1212.132265
status=Solve_Succeeded
success=true
DataType=double
version=3
OpenSimVersion=4.5
endheader
time	/jointset/ground_pelvis/pelvis_tilt/value	/jointset/ground_pelvis/pelvis_tx/value	/jointset/ground_pelvis/pelvis_ty/value	/jointset/hip_r/hip_flexion_r/value	/jointset/hip_r/hip_adduction_r/value	/jointset/hip_r/hip_rotation_r/value	/jointset/back/lumbar_extension/value	/jointset/patellofemoral_r/patellar_flexion_r/value	/jointset/knee_r/knee_flexion_r/value	/jointset/knee_r/knee_adduction_r/value	/jointset/knee_r/knee_rotation_r/value	/jointset/ankle_r/ankle_angle_r/value	/jointset/subtalar_r/subtalar_angle_r/value	/jointset/ground_pelvis/pelvis_tilt/speed	/jointset/ground_pelvis/pelvis_tx/speed	/jointset/ground_pelvis/pelvis_ty/speed	/jointset/hip_r/hip_flexion_r/speed	/jointset/hip_r/hip_adduction_r/speed	/jointset/hip_r/hip_rotation_r/speed	/jointset/back/lumbar_extension/speed	/jointset/patellofemoral_r/patellar_flexion_r/speed	/jointset/knee_r/knee_flexion_r/speed	/jointset/knee_r/knee_adduction_r/speed	/jointset/knee_r/knee_rotation_r/speed	/jointset/ankle_r/ankle_angle_r/speed	/jointset/subtalar_r/subtalar_angle_r/speed	/forceset/tau_hip_flexion_r	/forceset/tau_hip_adduction_r	/forceset/tau_hip_rotation_r	/forceset/tau_knee_flexion_r	/forceset/tau_ankle_angle_r	/forceset/tau_subtalar_angle_r	/forceset/tau_lumbar_extension	lambda_cid13_p0	lambda_cid14_p0	lambda_cid14_p1	lambda_cid14_p2	lambda_cid14_p3	lambda_cid14_p4	lambda_cid14_p5	/jointset/ground_pelvis/pelvis_tilt/accel	/jointset/ground_pelvis/pelvis_tx/accel	/jointset/ground_pelvis/pelvis_ty/accel	/jointset/hip_r/hip_flexion_r/accel	/jointset/hip_r/hip_adduction_r/accel	/jointset/hip_r/hip_rotation_r/accel	/jointset/back/lumbar_extension/accel	/jointset/patellofemoral_r/patellar_flexion_r/accel	/jointset/knee_r/knee_flexion_r/accel	/jointset/knee_r/knee_adduction_r/accel	/jointset/knee_r/knee_rotation_r/accel	/jointset/ankle_r/ankle_angle_r/accel	/jointset/subtalar_r/subtalar_angle_r/accel	gamma_cid13_p0	gamma_cid14_p0	gamma_cid14_p1	gamma_cid14_p2	gamma_cid14_p3	gamma_cid14_p4	gamma_cid14_p5
0.5	-0.09806890722107378	0.0522509162992535	0.8636364873038589	0.6923697424190276	-0.2299582786611798	-0.1330747321402578	-0.3174327098194475	0.6873799032468335	0.6873799032468778	0.04125762368927804	0.1740603652337097	0.2640828543800739	0.05699565542561627	-0.2635007959272754	-0.08805227525701372	-0.3252983817529803	1.401195148413927	-0.007744014065639565	0.2554629314389072	-0.5999944297525984	1.659948168740545	1.659948168740494	-0.2784493891360327	-0.001205763396119943	0.6115692513354906	0.1646381121364912	-0.07503983626799761	-0.01859024235321183	0.008331678385267981	-0.3391208156305808	0.06164865134733317	-0.009947721711189126	0.1350584200237972	-32.03705754979384	-22.40073673379312	-4.320386663226212	-3.331243322959402	3.621762920520833	-670.7290011149468	60.02925093877055	0.06553747076136127	0.273564951392301	-0.3429069781064329	-0.856162464164237	-0.05308122192010593	-0.5591399408559483	1.288158251357216	-1.132561538979585	-1.132561538979588	0.3834405853069218	0.006504172223914964	-0.4719075025573325	-0.06343603585786059	-1.087220467386334e-07	-1.570208204909297e-07	5.305447494628197e-07	-1.23334559595482e-06	4.060512438851903e-08	-2.151401469897336e-07	8.444248969936723e-07
0.51	-0.1007002496045687	0.05138415212204103	0.8603671045785739	0.706336656216859	-0.2300391175460622	-0.1305469387438007	-0.3233675868282743	0.7039200516761345	0.703920051676204	0.03849472014614544	0.1740485273385296	0.2701736768663378	0.05863745142205665	-0.2627383997932266	-0.08529447788309762	-0.3285024019096346	1.391995073937606	-0.008426770975272734	0.2501082934451214	-0.5869059705702232	1.647827700599285	1.64782770059926	-0.2740894100537344	-0.001172013010001254	0.6064958777038018	0.1636836933927284	-0.0802652703732482	-0.01675678128429746	0.008986804625004592	-0.3419250922732701	0.05725850082097758	-0.00936656810219999	0.1398576778133185	-31.09241634817282	-23.95788470138667	-4.458147118009059	-3.175055343797561	4.290747281663402	-673.978207565653	59.79734876080602	0.08597030650420454	0.277808883071706	-0.2978289815477523	-0.980827536162948	-0.07648788821906113	-0.5219252760280708	1.330439967950715	-1.289841100484568	-1.289841100480631	0.4685679478615521	6.582587706689159e-05	-0.5399666231782928	-0.117122163414176	-9.214819531584326e-08	-1.150161550037746e-07	5.918840245684386e-07	-9.155163175734345e-07	8.272897720503967e-09	-1.692386564175474e-07	7.415104142676854e-07
0.52	-0.1033230921023676	0.05054515026910347	0.8570679457623018	0.7202057897505689	-0.2301269069925818	-0.1280723516367644	-0.3291693292020221	0.7203313850942722	0.7203313850943579	0.035776674669475	0.1740366780180115	0.2762107827503442	0.06026856775710372	-0.2618008187880655	-0.08249981040203087	-0.3312535999504017	1.381639095589405	-0.009134126394270447	0.244821673555808	-0.5733675027369147	1.634185166506611	1.634185166506613	-0.2694777758446284	-0.001208048461032479	0.6008259308839673	0.162502179857818	-0.08549070447849297	-0.01492332021539753	0.009641930864692196	-0.3447293689159582	0.05286835029461632	-0.008785414493238546	0.1446569356028495	-30.13941166927635	-25.51941340429794	-4.594197380393642	-3.0219703077808	4.946757679943047	-677.3006129116104	59.62837367705757	0.1005744449838373	0.2809389728224298	-0.2523425549289852	-1.087343238540068	-0.0580009237930131	-0.5455363199614662	1.378159981543855	-1.436974729262259	-1.436974729262267	0.4337716106684507	-0.007452995206068143	-0.591222140186435	-0.1088549940873751	-6.790737078609313e-08	-3.059203622430418e-08	8.165379241310547e-07	-2.96679417821127e-07	-7.004570995163505e-08	-7.015270628831344e-08	6.106188191910404e-07
0.53	-0.1059356857539434	0.04973434396547576	0.8537435578125345	0.7339657286416599	-0.2302214707769946	-0.1256521242167732	-0.3348332161923973	0.7365990530569557	0.7365990530569779	0.0331040325313107	0.1740251771171446	0.2821886364638764	0.06188743412246129	-0.2606756027402818	-0.07964752544823019	-0.333544765190447	1.370140606150749	-0.009789314553958192	0.2392636134696327	-0.5593262925333126	1.619118163437562	1.61911816343758	-0.2649850305594268	-0.001112080813018545	0.5946703468646445	0.1612285946051243	-0.09075274037664124	-0.01329013861558839	0.01031875737909206	-0.347668192991468	0.04884281231758233	-0.008265532874256359	0.1495268084247909	-29.18065107308412	-26.96680109736658	-4.739738150771127	-2.864099228085695	5.432413760193916	-680.692296247777	59.4795367678337	0.1248417286204301	0.2894397513917989	-0.2056234081848341	-1.212311973659725	-0.07079934731688886	-0.5550286428208138	1.429641960376698	-1.576091449607862	-1.576091449605457	0.4670019085847263	0.01515033623493631	-0.6389210317555072	-0.1428348539583701	-4.236692493798343e-08	5.321268590345194e-08	1.030765714548132e-06	3.177095007710304e-07	-1.469015861330296e-07	2.491637104326962e-08	4.948022890474016e-07
